<svg width="35" height="47" viewBox="0 0 35 47" fill="none" xmlns="http://www.w3.org/2000/svg">
<path d="M33.433 0.00245669C22.812 0.000157667 12.1921 0.000157667 1.57111 0.00245669C0.553988 0.0036062 -0.0864226 0.692162 0.00946777 1.71293C0.278874 4.55911 0.572253 7.40185 0.855358 10.2469C1.14645 13.1678 1.43641 16.0875 1.7275 19.0084C2.04828 22.2328 2.3702 25.4583 2.69097 28.6827C2.97865 31.5726 3.26403 34.4636 3.55056 37.3535C3.82568 40.1215 4.09965 42.8907 4.37591 45.6587C4.4444 46.3472 4.89303 46.7254 5.46609 47.0013H29.5369C30.3028 46.6702 30.5985 46.0782 30.6727 45.2483C30.9661 41.9596 31.312 38.6754 31.6396 35.3901C31.9901 31.8761 32.3451 28.3632 32.6944 24.8491C33.0129 21.6397 33.3257 18.4291 33.6442 15.2197C33.9627 12.0102 34.2857 8.8008 34.6076 5.59137C34.7366 4.29817 34.8759 3.00613 34.9912 1.71178C35.0825 0.692162 34.4535 0.00245669 33.4318 0.00245669H33.433ZM31.6008 6.3558C31.3382 9.01691 31.062 11.6769 30.8188 14.3391C30.78 14.7702 30.6442 14.9599 30.2184 15.0794C28.1567 15.6565 26.0791 16.0301 23.9273 15.8025C22.046 15.6036 20.312 15.0059 18.8097 13.8345C17.3713 12.7126 15.8611 11.7424 14.1019 11.209C12.0654 10.5917 9.99006 10.4067 7.88846 10.7021C6.56997 10.8872 5.26403 11.1596 3.91129 11.3998C3.63618 8.63872 3.3565 5.81783 3.07225 2.96474H31.9273C31.8165 4.11195 31.7115 5.23387 31.6008 6.3558Z" fill="#C6E2E9"/>
<path d="M11.0004 29H25.0004" stroke="white" stroke-width="5" stroke-linecap="round"/>
<path d="M18.0004 36V22" stroke="white" stroke-width="5" stroke-linecap="round"/>
</svg>
