<svg width="35" height="47" viewBox="0 0 35 47" fill="none" xmlns="http://www.w3.org/2000/svg">
<g clip-path="url(#clip0_42_50)">
<path d="M33.4326 0.00239565C22.8116 9.66319e-05 12.1918 9.66319e-05 1.57075 0.00239565C0.553622 0.00354516 -0.0867889 0.692101 0.00910156 1.71287C0.278508 4.55905 0.571887 7.40179 0.854992 10.2468C1.14609 13.1677 1.43604 16.0875 1.72714 19.0084C2.04791 22.2328 2.36983 25.4583 2.69061 28.6827C2.97828 31.5725 3.26367 34.4635 3.5502 37.3534C3.82531 40.1214 4.09928 42.8906 4.37554 45.6586C4.44403 46.3472 4.89266 46.7254 5.46572 47.0012H29.5365C30.3025 46.6702 30.5981 46.0782 30.6723 45.2482C30.9657 41.9595 31.3116 38.6753 31.6392 35.39C31.9897 31.876 32.3447 28.3631 32.694 24.849C33.0125 21.6396 33.3253 18.429 33.6438 15.2196C33.9623 12.0102 34.2854 8.80074 34.6073 5.59131C34.7363 4.29811 34.8755 3.00606 34.9908 1.71172C35.0822 0.692101 34.4532 0.00239565 33.4315 0.00239565H33.4326ZM31.6004 6.35573C31.3379 9.01685 31.0616 11.6768 30.8185 14.3391C30.7796 14.7701 30.6438 14.9598 30.218 15.0794C28.1564 15.6564 26.0787 16.03 23.9269 15.8024C22.0456 15.6035 20.3116 15.0058 18.8093 13.8344C17.371 12.7125 15.8607 11.7423 14.1016 11.209C12.065 10.5917 9.9897 10.4066 7.8881 10.702C6.5696 10.8871 5.26367 11.1595 3.91093 11.3998C3.63581 8.63866 3.35613 5.81776 3.07189 2.96468H31.9269C31.8162 4.11189 31.7112 5.23381 31.6004 6.35573Z" fill="#1C8CA5"/>
</g>
<defs>
<clipPath id="clip0_42_50">
<rect width="35" height="47" fill="white"/>
</clipPath>
</defs>
</svg>
